<svg xmlns="http://www.w3.org/2000/svg" xmlns:xlink="http://www.w3.org/1999/xlink" width="297.219" height="257.689" viewBox="0 0 297.219 257.689">
  <defs>
    <linearGradient id="linear-gradient" x1="0.182" y1="0.366" x2="0.663" y2="0.902" gradientUnits="objectBoundingBox">
      <stop offset="0" stop-color="#d364fb"/>
      <stop offset="0.653" stop-color="#0c2897"/>
      <stop offset="1" stop-color="#e62170"/>
    </linearGradient>
  </defs>
  <path id="Subtraction_6" data-name="Subtraction 6" d="M341.276,38.689H206.06l-6.548-8.665-8.287-11.316L179.791,2.362,173.461-9.355a26.787,26.787,0,0,1-.4-4.95,41.924,41.924,0,0,1,2.005-12.531c3.153-9.939,12.754-26.855,12.851-27.024a9.624,9.624,0,0,0,.331-2.86,15.976,15.976,0,0,0-1.843-7.061c-2.688-5.268-6.451-11.309-7.178-12.467l0-.005c-.02,0-2.077.032-5.291,2.74a33.006,33.006,0,0,0-2.86,2.729l-.006.006-.006.007-.005.005a17.476,17.476,0,0,1-4.115,3.395,7.488,7.488,0,0,1-3.893.913,18.28,18.28,0,0,1-5.268-.912L145.3-71.152c-.029-.019-3.389-1.928-6.153-1.928a5.294,5.294,0,0,0-.65.038l-1.105.126-.023,0-.077.009h-.005a131.5,131.5,0,0,0-18.916,3.359,3.446,3.446,0,0,1-2.38-1.48c-1.623-2.361-.775-6.743-.738-6.928a20.579,20.579,0,0,1,.915-3.266,19,19,0,0,1,3.715-6.278c3.681-3.963,10.236-6.508,10.3-6.533.14-.016,14.1-1.666,20.879-5.845a23.638,23.638,0,0,0,2.8-4.731l.005-.011.005-.01c1.3-2.637,2.654-5.363,5.314-7.627,4.257-2.481,9.378-2.515,13.117-2.539a16.475,16.475,0,0,0,4.08-.3c.327-.106.592-.735.994-1.687l.006-.014,0-.012a17.592,17.592,0,0,1,6.932-8.776A102.177,102.177,0,0,1,201.56-133.8c5.637-2.163,9.669-3.391,9.7-3.4l-13.89,12.568a26.911,26.911,0,0,0-5.008,9.544c-.019.067-.037.129-.055.187l-.019.065c-.1.345-.158.534-.1.62a.169.169,0,0,0,.143.049,4,4,0,0,0,.721-.144l.03-.007.025-.007.014,0c.5-.123,1.247-.307,2.334-.491a57.588,57.588,0,0,1,9.423-.653,149.588,149.588,0,0,1,15.636.951,29.452,29.452,0,0,1,7.593,2.214,30.923,30.923,0,0,1,5.571,3.2,26.448,26.448,0,0,1,4.6,4.131,78.022,78.022,0,0,0-15.272-1.926,25.982,25.982,0,0,0-4.947.412c-7.377,1.453-11.3,4.412-11.339,4.442l.01.006a57.982,57.982,0,0,1,6.392,5.746,107.684,107.684,0,0,1,14.2,18.154c4.028,7.876,6.9,17.45,8.592,24.095,1.767,6.916,2.65,12.089,2.745,12.656,0,0,0,0-.007-.01l-.014-.027c-.487-.934-3.089-5.89-6.456-11.728-3.391-5.878-8.332-13.985-12.609-19.222-4.312-5.282-8.013-7.78-10.358-8.946a10.5,10.5,0,0,0-4.225-1.3.008.008,0,0,1,0,0l.011.012.011.012.011.012a104.1,104.1,0,0,1,10.01,12.762,54.325,54.325,0,0,1,6.236,14.551l-7.748-9.165a.105.105,0,0,1,0,.033v.02a114.871,114.871,0,0,1,0,11.853,34.674,34.674,0,0,0-2.377,5.37,4.676,4.676,0,0,0-.114,3.216c.769,1.792,3.411,2.562,8.206,3.961,3.1.9,6.953,2.022,11.86,3.882,4.359.226,8.29.341,11.682.341a70.577,70.577,0,0,0,8.264-.341h.005c.089-.067,2.219-1.7,4.372-7.094,2.023-5.07,4.489-14.6,4.749-31.217.407-26.016-.895-27.688-8.12-36.97l-.02-.024-.042-.054c-1.655-2.128-3.715-4.775-6.15-8.252-4.712-6.732-7.69-12.835-8.852-18.139-.938-4.283-.382-6.809-.1-7.7-.444.992-2.045,3.735-7.276,7.789.5-1.05.993-2.076,1.349-2.824l0-.005.022-.045.18-.378.013-.026c4.8-10.094,8.6-18.068,16.549-23.368.194-.3-1.374-1.449-1.69-1.676l0,0a41.825,41.825,0,0,0-6.748,4.373,52.443,52.443,0,0,0-12.628,14.126c-2.262,3.75-3.887,6.2-5.192,8.168l-.008.012-.016.025,0,.007a81.656,81.656,0,0,0-8.008,14.748,84.389,84.389,0,0,1,6.1-26.383,80.369,80.369,0,0,1,10.652-18.428,76.3,76.3,0,0,1,10.12-10.811,45.587,45.587,0,0,1,4.5-3.528l-.006,0a52.147,52.147,0,0,0-6.254-2.007A61.447,61.447,0,0,0,223.43-187.8a46.069,46.069,0,0,0-9.716,1,26.227,26.227,0,0,1,13.152-9.628,46.775,46.775,0,0,1,15.511-2.371,72.987,72.987,0,0,1,16.6,1.983c0-.017.277-1.935-1.852-5.615-1.963-3.394-6.429-9.021-16.562-16.56,30.913,10.522,32.221,16.45,32.924,19.635.27,1.227.449,2.038,2.215,2.54a29.6,29.6,0,0,0,7.389.673c5.153.066,10.481.134,12.66,4.517,3.047,6.127,6.048,10.873,6.38,11.394l0,.007h.005c.042,0,4.234.465,9.472,1.6,4.827,1.041,11.533,2.874,16.063,5.7a20.814,20.814,0,0,1,5.135,4.467,18.8,18.8,0,0,1,2.738,4.492,15.707,15.707,0,0,1,1.288,4.854c.009.031.865,3.141-.672,5.27a5.54,5.54,0,0,1-4.524,2.006c-.226.008-.429.013-.6.013a37.841,37.841,0,0,1-9.749-1.843l-.707-.205-.409-.118-.013,0a29.6,29.6,0,0,0-6.9-1.516,2.746,2.746,0,0,0-1.561.366c-1.271.861-5.555,2.3-10.66,3.577a73.3,73.3,0,0,1-13.959,2.36l-.106,0h-.06a7.987,7.987,0,0,1-4.4-1.251,7.316,7.316,0,0,1-2.566-3.271c-1.2-2.764-7.5-4.893-7.559-4.913a35.177,35.177,0,0,0-5.1,8.788,23.075,23.075,0,0,0-3.129,9.8,27.77,27.77,0,0,0-.083,4.979l5.575,9.221,9.827,12.946,1.134,9.544,1.452,24.392v.185c-.028,6.313-.11,27.226,0,31.267,2.52,7.659,4.612,11.57,5.923,13.5,1.4,2.062,2.229,2.362,2.263,2.374a31.649,31.649,0,0,0,12.756-3.686,19.7,19.7,0,0,1,9.632-2.646c.624,0,1.167.027,1.669.055l.068,0,.054,0h.008c.336.017.653.033.948.033a24.4,24.4,0,0,0-.937-8.213,16.037,16.037,0,0,0-1.237-3.126v-.009l-.011-.14c-.284-3.607-.951-12.2-1.028-14.119-.089,0-6.153,7.161-7.368,8.6l6.234-13.981a48.286,48.286,0,0,1,3.568-4.748,35.175,35.175,0,0,1,8.811-7.725c1.384-.786,2.051-1.316,1.983-1.575-.033-.125-.24-.189-.615-.189-1.978,0-8.02,1.746-8.077,1.764a154.333,154.333,0,0,0-12.946,13.513c-5.121,6.262-9.036,12.07-9.071,12.124L287.7-44.128l1.323-9.733,5.669-17.386c.308-.516,7.606-12.7,14.08-19.465a120.5,120.5,0,0,1,12.472-11.338l-8.032-3.5a20.018,20.018,0,0,0-8.672-1.843,22.111,22.111,0,0,0-2.408.131c-5.638.612-7.071,1.1-8.48,1.712a20.33,20.33,0,0,1-4.2.835c-.265,0-.42-.039-.461-.115a.146.146,0,0,1,.031-.151c.488-.718,5.808-5.389,6.413-5.919l.007-.006,0,0a21.089,21.089,0,0,1,8.882-3.649c3.813-.644,11.41-.74,15.6-.74,1.735,0,2.817.015,2.825.016l12.757,1.7,0-.015c-.174-.621-1.751-6.145-3.587-8.678-1.97-2.724-15.083-14.344-15.213-14.458l22.772,9.071a39.208,39.208,0,0,1,5.657,4.181,28.52,28.52,0,0,1,4.269,4.668,15.878,15.878,0,0,1,2.736,5.891,84.353,84.353,0,0,1,15.78,2.01c.03.021,2.945,2.089,3.535,3.649a34.737,34.737,0,0,1,2.048,4.06l0,.011.006.015c1.328,2.952,2.583,5.74,5.557,7.358,3.771,2.609,7.913,3.189,11.918,3.749H391c3.966.557,7.712,1.082,11.034,3.43a25.783,25.783,0,0,1,7.214,8.217,27.577,27.577,0,0,1,2.141,4.634c.012.039,1.126,4.091.756,5.575-.344.6-1.781,3.7-2.065,4.317l-.006.013-.005.011,0,.005-16.252-4.346c-.009,0-1.586-.086-3.644-.086-2.708,0-6.174.154-7.309.889a30.607,30.607,0,0,1-11.4,4.1,38.469,38.469,0,0,1-6.457.77,29.17,29.17,0,0,1-5.857-.77,7.341,7.341,0,0,1-4.9-3.359,8.082,8.082,0,0,1-1.057-2.589l-5.2-3.307a34.111,34.111,0,0,0-7.541,9.256,22.511,22.511,0,0,0-2.4,10.339,16.42,16.42,0,0,0,.589,4.31c.371.656,9.134,16.183,13.891,26.27a106.131,106.131,0,0,1-.083,24.324,124.081,124.081,0,0,1-4.052,20.072,110.066,110.066,0,0,1-7.11,18.671ZM401.747-81.1a1.153,1.153,0,0,0-1.083.448c-.4.723.647,2.072,2.335,3.009a5.979,5.979,0,0,0,2.705.833,1.154,1.154,0,0,0,1.083-.448c.4-.724-.647-2.074-2.334-3.009A5.969,5.969,0,0,0,401.747-81.1ZM124.124-84.114a3.813,3.813,0,0,0-2.136.738,3.859,3.859,0,0,0-1.4,1.7,1.736,1.736,0,0,0,.091,1.662,1.717,1.717,0,0,0,1.469.656,3.812,3.812,0,0,0,2.136-.738,3.859,3.859,0,0,0,1.4-1.7,1.736,1.736,0,0,0-.091-1.662A1.716,1.716,0,0,0,124.124-84.114Zm241.942-14.9a11.859,11.859,0,0,0-4.741,1.067l.007.007.016.017c.746.8,4.56,4.865,6.377,5.775a6.7,6.7,0,0,0,2.808.445,30.183,30.183,0,0,0,4.593-.445,11.632,11.632,0,0,0-5-5.8A7.762,7.762,0,0,0,366.066-99.018ZM162.21-100.729c-2.178,0-4.463.176-4.485.177-.049.027-5,2.8-5.8,5a.828.828,0,0,0,.046.782c.481.7,2.327.738,4.113.773h.01a14.31,14.31,0,0,1,3.031.245,1.607,1.607,0,0,0,.412.054c1.844,0,4.32-2.94,5.959-4.886.339-.4.6-.708.829-.969.158-.178.206-.337.144-.475C166.261-100.493,164.828-100.729,162.21-100.729Zm164.669-65.822c-.765,0-1.3.242-1.472.665a1.315,1.315,0,0,0,.418,1.312,4.9,4.9,0,0,0,1.8,1.2,5.134,5.134,0,0,0,1.87.4c.766,0,1.3-.242,1.472-.664.31-.767-.686-1.9-2.219-2.515A5.161,5.161,0,0,0,326.879-166.551Zm-37.216-17.227a4.475,4.475,0,0,0-4.1,2.161,29.187,29.187,0,0,0,2.541,2.941c1.842,1.851,3.4,2.824,4.626,2.893.15.008.288.012.431.012a16.505,16.505,0,0,0,6.065-1.511s0,0,0-.009a14.5,14.5,0,0,0-1.881-2.6,11.758,11.758,0,0,0-5.449-3.559A8.355,8.355,0,0,0,289.663-183.778Z" transform="translate(-115 219)" fill="url(#linear-gradient)"/>
</svg>
